<svg width="14" height="14" viewBox="0 0 14 14" fill="none" xmlns="http://www.w3.org/2000/svg">
<mask id="mask0_19_42" style="mask-type:luminance" maskUnits="userSpaceOnUse" x="0" y="0" width="14" height="14">
<path d="M0.341463 3.41464H0V3.75611H0.341463V3.41464Z" fill="white"/>
<path d="M0.341463 3.75613H0V4.0976H0.341463V3.75613Z" fill="white"/>
<path d="M0.341463 4.43903H0V4.78049H0.341463V4.43903Z" fill="white"/>
<path d="M0.341463 4.78052H0V5.12198H0.341463V4.78052Z" fill="white"/>
<path d="M0.341463 5.80484H0V6.1463H0.341463V5.80484Z" fill="white"/>
<path d="M0.341463 6.14633H0V6.4878H0.341463V6.14633Z" fill="white"/>
<path d="M0.341463 6.82932H0V7.17078H0.341463V6.82932Z" fill="white"/>
<path d="M0.341463 9.56097H0V9.90244H0.341463V9.56097Z" fill="white"/>
<path d="M0.341463 9.90247H0V10.2439H0.341463V9.90247Z" fill="white"/>
<path d="M0.341463 10.9268H0V11.2683H0.341463V10.9268Z" fill="white"/>
<path d="M0.682955 2.73166H0.341492V3.07312H0.682955V2.73166Z" fill="white"/>
<path d="M0.682955 3.07315H0.341492V3.41461H0.682955V3.07315Z" fill="white"/>
<path d="M0.682955 3.41464H0.341492V3.75611H0.682955V3.41464Z" fill="white"/>
<path d="M0.682955 3.75613H0.341492V4.0976H0.682955V3.75613Z" fill="white"/>
<path d="M0.682955 4.09753H0.341492V4.439H0.682955V4.09753Z" fill="white"/>
<path d="M0.682955 4.78052H0.341492V5.12198H0.682955V4.78052Z" fill="white"/>
<path d="M0.682955 5.12198H0.341492V5.46344H0.682955V5.12198Z" fill="white"/>
<path d="M0.682955 5.80484H0.341492V6.1463H0.682955V5.80484Z" fill="white"/>
<path d="M0.682955 6.48782H0.341492V6.82929H0.682955V6.48782Z" fill="white"/>
<path d="M0.682955 7.17068H0.341492V7.51215H0.682955V7.17068Z" fill="white"/>
<path d="M0.682955 7.51218H0.341492V7.85364H0.682955V7.51218Z" fill="white"/>
<path d="M0.682955 7.85367H0.341492V8.19513H0.682955V7.85367Z" fill="white"/>
<path d="M0.682955 9.56097H0.341492V9.90244H0.682955V9.56097Z" fill="white"/>
<path d="M0.682955 10.5854H0.341492V10.9268H0.682955V10.5854Z" fill="white"/>
<path d="M1.02439 3.07315H0.682922V3.41461H1.02439V3.07315Z" fill="white"/>
<path d="M1.02439 3.41464H0.682922V3.75611H1.02439V3.41464Z" fill="white"/>
<path d="M1.02439 3.75613H0.682922V4.0976H1.02439V3.75613Z" fill="white"/>
<path d="M1.02439 4.09753H0.682922V4.439H1.02439V4.09753Z" fill="white"/>
<path d="M1.02439 4.43903H0.682922V4.78049H1.02439V4.43903Z" fill="white"/>
<path d="M1.02439 5.80484H0.682922V6.1463H1.02439V5.80484Z" fill="white"/>
<path d="M1.02439 6.14633H0.682922V6.4878H1.02439V6.14633Z" fill="white"/>
<path d="M1.02439 6.48782H0.682922V6.82929H1.02439V6.48782Z" fill="white"/>
<path d="M1.02439 6.82932H0.682922V7.17078H1.02439V6.82932Z" fill="white"/>
<path d="M1.02439 7.17068H0.682922V7.51215H1.02439V7.17068Z" fill="white"/>
<path d="M1.02439 7.51218H0.682922V7.85364H1.02439V7.51218Z" fill="white"/>
<path d="M1.02439 8.19516H0.682922V8.53662H1.02439V8.19516Z" fill="white"/>
<path d="M1.02439 8.53659H0.682922V8.87805H1.02439V8.53659Z" fill="white"/>
<path d="M1.02439 9.21948H0.682922V9.56095H1.02439V9.21948Z" fill="white"/>
<path d="M1.02439 9.56097H0.682922V9.90244H1.02439V9.56097Z" fill="white"/>
<path d="M1.02439 10.2439H0.682922V10.5853H1.02439V10.2439Z" fill="white"/>
<path d="M1.02439 10.9268H0.682922V11.2683H1.02439V10.9268Z" fill="white"/>
<path d="M1.36588 2.73166H1.02441V3.07312H1.36588V2.73166Z" fill="white"/>
<path d="M1.36588 3.41464H1.02441V3.75611H1.36588V3.41464Z" fill="white"/>
<path d="M1.36588 3.75613H1.02441V4.0976H1.36588V3.75613Z" fill="white"/>
<path d="M1.36588 4.09753H1.02441V4.439H1.36588V4.09753Z" fill="white"/>
<path d="M1.36588 5.46341H1.02441V5.80487H1.36588V5.46341Z" fill="white"/>
<path d="M1.36588 6.14633H1.02441V6.4878H1.36588V6.14633Z" fill="white"/>
<path d="M1.36588 6.48782H1.02441V6.82929H1.36588V6.48782Z" fill="white"/>
<path d="M1.36588 6.82932H1.02441V7.17078H1.36588V6.82932Z" fill="white"/>
<path d="M1.36588 7.85367H1.02441V8.19513H1.36588V7.85367Z" fill="white"/>
<path d="M1.36588 8.53659H1.02441V8.87805H1.36588V8.53659Z" fill="white"/>
<path d="M1.36588 8.87802H1.02441V9.21948H1.36588V8.87802Z" fill="white"/>
<path d="M1.36588 9.21948H1.02441V9.56095H1.36588V9.21948Z" fill="white"/>
<path d="M1.36588 9.90247H1.02441V10.2439H1.36588V9.90247Z" fill="white"/>
<path d="M1.36588 10.9268H1.02441V11.2683H1.36588V10.9268Z" fill="white"/>
<path d="M1.70731 2.73166H1.36584V3.07312H1.70731V2.73166Z" fill="white"/>
<path d="M1.70731 4.78052H1.36584V5.12198H1.70731V4.78052Z" fill="white"/>
<path d="M1.70731 5.12198H1.36584V5.46344H1.70731V5.12198Z" fill="white"/>
<path d="M1.70731 5.80484H1.36584V6.1463H1.70731V5.80484Z" fill="white"/>
<path d="M1.70731 6.14633H1.36584V6.4878H1.70731V6.14633Z" fill="white"/>
<path d="M1.70731 6.82932H1.36584V7.17078H1.70731V6.82932Z" fill="white"/>
<path d="M1.70731 7.17068H1.36584V7.51215H1.70731V7.17068Z" fill="white"/>
<path d="M1.70731 7.51218H1.36584V7.85364H1.70731V7.51218Z" fill="white"/>
<path d="M1.70731 7.85367H1.36584V8.19513H1.70731V7.85367Z" fill="white"/>
<path d="M1.70731 8.19516H1.36584V8.53662H1.70731V8.19516Z" fill="white"/>
<path d="M1.70731 8.53659H1.36584V8.87805H1.70731V8.53659Z" fill="white"/>
<path d="M1.70731 8.87802H1.36584V9.21948H1.70731V8.87802Z" fill="white"/>
<path d="M1.70731 9.56097H1.36584V9.90244H1.70731V9.56097Z" fill="white"/>
<path d="M1.70731 9.90247H1.36584V10.2439H1.70731V9.90247Z" fill="white"/>
<path d="M1.70731 10.2439H1.36584V10.5853H1.70731V10.2439Z" fill="white"/>
<path d="M1.70731 10.5854H1.36584V10.9268H1.70731V10.5854Z" fill="white"/>
<path d="M2.0488 3.07315H1.70734V3.41461H2.0488V3.07315Z" fill="white"/>
<path d="M2.0488 4.09753H1.70734V4.439H2.0488V4.09753Z" fill="white"/>
<path d="M2.0488 4.78052H1.70734V5.12198H2.0488V4.78052Z" fill="white"/>
<path d="M2.0488 5.12198H1.70734V5.46344H2.0488V5.12198Z" fill="white"/>
<path d="M2.0488 6.82932H1.70734V7.17078H2.0488V6.82932Z" fill="white"/>
<path d="M2.0488 7.51218H1.70734V7.85364H2.0488V7.51218Z" fill="white"/>
<path d="M2.0488 10.9268H1.70734V11.2683H2.0488V10.9268Z" fill="white"/>
<path d="M2.39023 2.73166H2.04877V3.07312H2.39023V2.73166Z" fill="white"/>
<path d="M2.39023 3.41464H2.04877V3.75611H2.39023V3.41464Z" fill="white"/>
<path d="M2.39023 4.09753H2.04877V4.439H2.39023V4.09753Z" fill="white"/>
<path d="M2.39023 4.78052H2.04877V5.12198H2.39023V4.78052Z" fill="white"/>
<path d="M2.39023 5.46341H2.04877V5.80487H2.39023V5.46341Z" fill="white"/>
<path d="M2.39023 6.14633H2.04877V6.4878H2.39023V6.14633Z" fill="white"/>
<path d="M2.39023 6.82932H2.04877V7.17078H2.39023V6.82932Z" fill="white"/>
<path d="M2.39023 7.51218H2.04877V7.85364H2.39023V7.51218Z" fill="white"/>
<path d="M2.39023 8.19516H2.04877V8.53662H2.39023V8.19516Z" fill="white"/>
<path d="M2.39023 8.87802H2.04877V9.21948H2.39023V8.87802Z" fill="white"/>
<path d="M2.39023 9.56097H2.04877V9.90244H2.39023V9.56097Z" fill="white"/>
<path d="M2.39023 10.2439H2.04877V10.5853H2.39023V10.2439Z" fill="white"/>
<path d="M2.39023 10.9268H2.04877V11.2683H2.39023V10.9268Z" fill="white"/>
<path d="M2.73172 2.73166H2.39026V3.07312H2.73172V2.73166Z" fill="white"/>
<path d="M2.73172 4.78052H2.39026V5.12198H2.73172V4.78052Z" fill="white"/>
<path d="M2.73172 5.12198H2.39026V5.46344H2.73172V5.12198Z" fill="white"/>
<path d="M2.73172 6.14633H2.39026V6.4878H2.73172V6.14633Z" fill="white"/>
<path d="M2.73172 6.48782H2.39026V6.82929H2.73172V6.48782Z" fill="white"/>
<path d="M2.73172 7.85367H2.39026V8.19513H2.73172V7.85367Z" fill="white"/>
<path d="M2.73172 8.53659H2.39026V8.87805H2.73172V8.53659Z" fill="white"/>
<path d="M2.73172 9.21948H2.39026V9.56095H2.73172V9.21948Z" fill="white"/>
<path d="M2.73172 9.56097H2.39026V9.90244H2.73172V9.56097Z" fill="white"/>
<path d="M2.73172 10.5854H2.39026V10.9268H2.73172V10.5854Z" fill="white"/>
<path d="M3.07315 0.341492H2.73169V0.682955H3.07315V0.341492Z" fill="white"/>
<path d="M3.07315 1.02435H2.73169V1.36582H3.07315V1.02435Z" fill="white"/>
<path d="M3.07315 1.36584H2.73169V1.70731H3.07315V1.36584Z" fill="white"/>
<path d="M3.07315 1.70734H2.73169V2.0488H3.07315V1.70734Z" fill="white"/>
<path d="M3.07315 2.0488H2.73169V2.39026H3.07315V2.0488Z" fill="white"/>
<path d="M3.07315 2.73166H2.73169V3.07312H3.07315V2.73166Z" fill="white"/>
<path d="M3.07315 3.07315H2.73169V3.41461H3.07315V3.07315Z" fill="white"/>
<path d="M3.07315 3.41464H2.73169V3.75611H3.07315V3.41464Z" fill="white"/>
<path d="M3.07315 3.75613H2.73169V4.0976H3.07315V3.75613Z" fill="white"/>
<path d="M3.07315 4.43903H2.73169V4.78049H3.07315V4.43903Z" fill="white"/>
<path d="M3.07315 5.12198H2.73169V5.46344H3.07315V5.12198Z" fill="white"/>
<path d="M3.07315 5.46341H2.73169V5.80487H3.07315V5.46341Z" fill="white"/>
<path d="M3.07315 5.80484H2.73169V6.1463H3.07315V5.80484Z" fill="white"/>
<path d="M3.07315 6.48782H2.73169V6.82929H3.07315V6.48782Z" fill="white"/>
<path d="M3.07315 6.82932H2.73169V7.17078H3.07315V6.82932Z" fill="white"/>
<path d="M3.07315 8.19516H2.73169V8.53662H3.07315V8.19516Z" fill="white"/>
<path d="M3.07315 8.87802H2.73169V9.21948H3.07315V8.87802Z" fill="white"/>
<path d="M3.07315 9.56097H2.73169V9.90244H3.07315V9.56097Z" fill="white"/>
<path d="M3.07315 9.90247H2.73169V10.2439H3.07315V9.90247Z" fill="white"/>
<path d="M3.07315 10.5854H2.73169V10.9268H3.07315V10.5854Z" fill="white"/>
<path d="M3.07315 10.9268H2.73169V11.2683H3.07315V10.9268Z" fill="white"/>
<path d="M3.07315 11.2683H2.73169V11.6098H3.07315V11.2683Z" fill="white"/>
<path d="M3.07315 11.6098H2.73169V11.9512H3.07315V11.6098Z" fill="white"/>
<path d="M3.07315 12.2927H2.73169V12.6341H3.07315V12.2927Z" fill="white"/>
<path d="M3.07315 12.6342H2.73169V12.9756H3.07315V12.6342Z" fill="white"/>
<path d="M3.07315 13.317H2.73169V13.6585H3.07315V13.317Z" fill="white"/>
<path d="M3.41464 0.341492H3.07318V0.682955H3.41464V0.341492Z" fill="white"/>
<path d="M3.41464 0.682953H3.07318V1.02442H3.41464V0.682953Z" fill="white"/>
<path d="M3.41464 1.02435H3.07318V1.36582H3.41464V1.02435Z" fill="white"/>
<path d="M3.41464 1.70734H3.07318V2.0488H3.41464V1.70734Z" fill="white"/>
<path d="M3.41464 2.39023H3.07318V2.73169H3.41464V2.39023Z" fill="white"/>
<path d="M3.41464 3.41464H3.07318V3.75611H3.41464V3.41464Z" fill="white"/>
<path d="M3.41464 5.80484H3.07318V6.1463H3.41464V5.80484Z" fill="white"/>
<path d="M3.41464 7.17068H3.07318V7.51215H3.41464V7.17068Z" fill="white"/>
<path d="M3.41464 7.51218H3.07318V7.85364H3.41464V7.51218Z" fill="white"/>
<path d="M3.41464 8.87802H3.07318V9.21948H3.41464V8.87802Z" fill="white"/>
<path d="M3.41464 9.21948H3.07318V9.56095H3.41464V9.21948Z" fill="white"/>
<path d="M3.41464 9.90247H3.07318V10.2439H3.41464V9.90247Z" fill="white"/>
<path d="M3.41464 10.5854H3.07318V10.9268H3.41464V10.5854Z" fill="white"/>
<path d="M3.41464 11.2683H3.07318V11.6098H3.41464V11.2683Z" fill="white"/>
<path d="M3.41464 12.2927H3.07318V12.6341H3.41464V12.2927Z" fill="white"/>
<path d="M3.41464 13.317H3.07318V13.6585H3.41464V13.317Z" fill="white"/>
<path d="M3.75614 0.341492H3.41467V0.682955H3.75614V0.341492Z" fill="white"/>
<path d="M3.75614 0.682953H3.41467V1.02442H3.75614V0.682953Z" fill="white"/>
<path d="M3.75614 1.02435H3.41467V1.36582H3.75614V1.02435Z" fill="white"/>
<path d="M3.75614 1.36584H3.41467V1.70731H3.75614V1.36584Z" fill="white"/>
<path d="M3.75614 2.0488H3.41467V2.39026H3.75614V2.0488Z" fill="white"/>
<path d="M3.75614 2.39023H3.41467V2.73169H3.75614V2.39023Z" fill="white"/>
<path d="M3.75614 2.73166H3.41467V3.07312H3.75614V2.73166Z" fill="white"/>
<path d="M3.75614 3.07315H3.41467V3.41461H3.75614V3.07315Z" fill="white"/>
<path d="M3.75614 3.41464H3.41467V3.75611H3.75614V3.41464Z" fill="white"/>
<path d="M3.75614 4.09753H3.41467V4.439H3.75614V4.09753Z" fill="white"/>
<path d="M3.75614 4.43903H3.41467V4.78049H3.75614V4.43903Z" fill="white"/>
<path d="M3.75614 4.78052H3.41467V5.12198H3.75614V4.78052Z" fill="white"/>
<path d="M3.75614 5.12198H3.41467V5.46344H3.75614V5.12198Z" fill="white"/>
<path d="M3.75614 5.46341H3.41467V5.80487H3.75614V5.46341Z" fill="white"/>
<path d="M3.75614 6.14633H3.41467V6.4878H3.75614V6.14633Z" fill="white"/>
<path d="M3.75614 6.48782H3.41467V6.82929H3.75614V6.48782Z" fill="white"/>
<path d="M3.75614 7.85367H3.41467V8.19513H3.75614V7.85367Z" fill="white"/>
<path d="M3.75614 8.19516H3.41467V8.53662H3.75614V8.19516Z" fill="white"/>
<path d="M3.75614 8.87802H3.41467V9.21948H3.75614V8.87802Z" fill="white"/>
<path d="M3.75614 9.21948H3.41467V9.56095H3.75614V9.21948Z" fill="white"/>
<path d="M3.75614 11.2683H3.41467V11.6098H3.75614V11.2683Z" fill="white"/>
<path d="M3.75614 12.2927H3.41467V12.6341H3.75614V12.2927Z" fill="white"/>
<path d="M3.75614 12.9756H3.41467V13.3171H3.75614V12.9756Z" fill="white"/>
<path d="M3.75614 13.317H3.41467V13.6585H3.75614V13.317Z" fill="white"/>
<path d="M4.09757 0H3.7561V0.341463H4.09757V0Z" fill="white"/>
<path d="M4.09757 0.682953H3.7561V1.02442H4.09757V0.682953Z" fill="white"/>
<path d="M4.09757 1.02435H3.7561V1.36582H4.09757V1.02435Z" fill="white"/>
<path d="M4.09757 1.36584H3.7561V1.70731H4.09757V1.36584Z" fill="white"/>
<path d="M4.09757 1.70734H3.7561V2.0488H4.09757V1.70734Z" fill="white"/>
<path d="M4.09757 2.39023H3.7561V2.73169H4.09757V2.39023Z" fill="white"/>
<path d="M4.09757 3.07315H3.7561V3.41461H4.09757V3.07315Z" fill="white"/>
<path d="M4.09757 4.09753H3.7561V4.439H4.09757V4.09753Z" fill="white"/>
<path d="M4.09757 5.46341H3.7561V5.80487H4.09757V5.46341Z" fill="white"/>
<path d="M4.09757 5.80484H3.7561V6.1463H4.09757V5.80484Z" fill="white"/>
<path d="M4.09757 6.48782H3.7561V6.82929H4.09757V6.48782Z" fill="white"/>
<path d="M4.09757 6.82932H3.7561V7.17078H4.09757V6.82932Z" fill="white"/>
<path d="M4.09757 7.85367H3.7561V8.19513H4.09757V7.85367Z" fill="white"/>
<path d="M4.09757 9.21948H3.7561V9.56095H4.09757V9.21948Z" fill="white"/>
<path d="M4.09757 9.90247H3.7561V10.2439H4.09757V9.90247Z" fill="white"/>
<path d="M4.09757 10.2439H3.7561V10.5853H4.09757V10.2439Z" fill="white"/>
<path d="M4.09757 10.5854H3.7561V10.9268H4.09757V10.5854Z" fill="white"/>
<path d="M4.09757 10.9268H3.7561V11.2683H4.09757V10.9268Z" fill="white"/>
<path d="M4.09757 11.9512H3.7561V12.2927H4.09757V11.9512Z" fill="white"/>
<path d="M4.09757 12.2927H3.7561V12.6341H4.09757V12.2927Z" fill="white"/>
<path d="M4.09757 12.6342H3.7561V12.9756H4.09757V12.6342Z" fill="white"/>
<path d="M4.09757 13.317H3.7561V13.6585H4.09757V13.317Z" fill="white"/>
<path d="M4.09757 13.6585H3.7561V14H4.09757V13.6585Z" fill="white"/>
<path d="M4.43906 0.341492H4.0976V0.682955H4.43906V0.341492Z" fill="white"/>
<path d="M4.43906 0.682953H4.0976V1.02442H4.43906V0.682953Z" fill="white"/>
<path d="M4.43906 2.0488H4.0976V2.39026H4.43906V2.0488Z" fill="white"/>
<path d="M4.43906 2.39023H4.0976V2.73169H4.43906V2.39023Z" fill="white"/>
<path d="M4.43906 2.73166H4.0976V3.07312H4.43906V2.73166Z" fill="white"/>
<path d="M4.43906 3.75613H4.0976V4.0976H4.43906V3.75613Z" fill="white"/>
<path d="M4.43906 4.09753H4.0976V4.439H4.43906V4.09753Z" fill="white"/>
<path d="M4.43906 4.43903H4.0976V4.78049H4.43906V4.43903Z" fill="white"/>
<path d="M4.43906 5.12198H4.0976V5.46344H4.43906V5.12198Z" fill="white"/>
<path d="M4.43906 5.46341H4.0976V5.80487H4.43906V5.46341Z" fill="white"/>
<path d="M4.43906 6.14633H4.0976V6.4878H4.43906V6.14633Z" fill="white"/>
<path d="M4.43906 6.48782H4.0976V6.82929H4.43906V6.48782Z" fill="white"/>
<path d="M4.43906 9.21948H4.0976V9.56095H4.43906V9.21948Z" fill="white"/>
<path d="M4.43906 9.56097H4.0976V9.90244H4.43906V9.56097Z" fill="white"/>
<path d="M4.43906 10.9268H4.0976V11.2683H4.43906V10.9268Z" fill="white"/>
<path d="M4.43906 11.2683H4.0976V11.6098H4.43906V11.2683Z" fill="white"/>
<path d="M4.43906 11.6098H4.0976V11.9512H4.43906V11.6098Z" fill="white"/>
<path d="M4.43906 11.9512H4.0976V12.2927H4.43906V11.9512Z" fill="white"/>
<path d="M4.43906 13.317H4.0976V13.6585H4.43906V13.317Z" fill="white"/>
<path d="M4.43906 13.6585H4.0976V14H4.43906V13.6585Z" fill="white"/>
<path d="M4.78049 0H4.43903V0.341463H4.78049V0Z" fill="white"/>
<path d="M4.78049 0.682953H4.43903V1.02442H4.78049V0.682953Z" fill="white"/>
<path d="M4.78049 1.02435H4.43903V1.36582H4.78049V1.02435Z" fill="white"/>
<path d="M4.78049 1.36584H4.43903V1.70731H4.78049V1.36584Z" fill="white"/>
<path d="M4.78049 1.70734H4.43903V2.0488H4.78049V1.70734Z" fill="white"/>
<path d="M4.78049 2.39023H4.43903V2.73169H4.78049V2.39023Z" fill="white"/>
<path d="M4.78049 2.73166H4.43903V3.07312H4.78049V2.73166Z" fill="white"/>
<path d="M4.78049 3.07315H4.43903V3.41461H4.78049V3.07315Z" fill="white"/>
<path d="M4.78049 4.09753H4.43903V4.439H4.78049V4.09753Z" fill="white"/>
<path d="M4.78049 4.78052H4.43903V5.12198H4.78049V4.78052Z" fill="white"/>
<path d="M4.78049 5.12198H4.43903V5.46344H4.78049V5.12198Z" fill="white"/>
<path d="M4.78049 5.46341H4.43903V5.80487H4.78049V5.46341Z" fill="white"/>
<path d="M4.78049 5.80484H4.43903V6.1463H4.78049V5.80484Z" fill="white"/>
<path d="M4.78049 6.14633H4.43903V6.4878H4.78049V6.14633Z" fill="white"/>
<path d="M4.78049 6.82932H4.43903V7.17078H4.78049V6.82932Z" fill="white"/>
<path d="M4.78049 8.19516H4.43903V8.53662H4.78049V8.19516Z" fill="white"/>
<path d="M4.78049 8.53659H4.43903V8.87805H4.78049V8.53659Z" fill="white"/>
<path d="M4.78049 8.87802H4.43903V9.21948H4.78049V8.87802Z" fill="white"/>
<path d="M4.78049 9.21948H4.43903V9.56095H4.78049V9.21948Z" fill="white"/>
<path d="M4.78049 9.56097H4.43903V9.90244H4.78049V9.56097Z" fill="white"/>
<path d="M4.78049 10.2439H4.43903V10.5853H4.78049V10.2439Z" fill="white"/>
<path d="M4.78049 11.6098H4.43903V11.9512H4.78049V11.6098Z" fill="white"/>
<path d="M4.78049 11.9512H4.43903V12.2927H4.78049V11.9512Z" fill="white"/>
<path d="M4.78049 12.2927H4.43903V12.6341H4.78049V12.2927Z" fill="white"/>
<path d="M4.78049 13.6585H4.43903V14H4.78049V13.6585Z" fill="white"/>
<path d="M5.12192 0H4.78046V0.341463H5.12192V0Z" fill="white"/>
<path d="M5.12192 0.682953H4.78046V1.02442H5.12192V0.682953Z" fill="white"/>
<path d="M5.12192 1.02435H4.78046V1.36582H5.12192V1.02435Z" fill="white"/>
<path d="M5.12192 1.70734H4.78046V2.0488H5.12192V1.70734Z" fill="white"/>
<path d="M5.12192 2.0488H4.78046V2.39026H5.12192V2.0488Z" fill="white"/>
<path d="M5.12192 3.41464H4.78046V3.75611H5.12192V3.41464Z" fill="white"/>
<path d="M5.12192 4.09753H4.78046V4.439H5.12192V4.09753Z" fill="white"/>
<path d="M5.12192 4.43903H4.78046V4.78049H5.12192V4.43903Z" fill="white"/>
<path d="M5.12192 4.78052H4.78046V5.12198H5.12192V4.78052Z" fill="white"/>
<path d="M5.12192 5.80484H4.78046V6.1463H5.12192V5.80484Z" fill="white"/>
<path d="M5.12192 6.48782H4.78046V6.82929H5.12192V6.48782Z" fill="white"/>
<path d="M5.12192 6.82932H4.78046V7.17078H5.12192V6.82932Z" fill="white"/>
<path d="M5.12192 9.21948H4.78046V9.56095H5.12192V9.21948Z" fill="white"/>
<path d="M5.12192 9.90247H4.78046V10.2439H5.12192V9.90247Z" fill="white"/>
<path d="M5.12192 10.5854H4.78046V10.9268H5.12192V10.5854Z" fill="white"/>
<path d="M5.12192 10.9268H4.78046V11.2683H5.12192V10.9268Z" fill="white"/>
<path d="M5.12192 11.2683H4.78046V11.6098H5.12192V11.2683Z" fill="white"/>
<path d="M5.12192 11.6098H4.78046V11.9512H5.12192V11.6098Z" fill="white"/>
<path d="M5.12192 11.9512H4.78046V12.2927H5.12192V11.9512Z" fill="white"/>
<path d="M5.12192 12.9756H4.78046V13.3171H5.12192V12.9756Z" fill="white"/>
<path d="M5.12192 13.317H4.78046V13.6585H5.12192V13.317Z" fill="white"/>
<path d="M5.12192 13.6585H4.78046V14H5.12192V13.6585Z" fill="white"/>
<path d="M5.46341 0.341492H5.12195V0.682955H5.46341V0.341492Z" fill="white"/>
<path d="M5.46341 0.682953H5.12195V1.02442H5.46341V0.682953Z" fill="white"/>
<path d="M5.46341 1.02435H5.12195V1.36582H5.46341V1.02435Z" fill="white"/>
<path d="M5.46341 1.70734H5.12195V2.0488H5.46341V1.70734Z" fill="white"/>
<path d="M5.46341 2.73166H5.12195V3.07312H5.46341V2.73166Z" fill="white"/>
<path d="M5.46341 3.07315H5.12195V3.41461H5.46341V3.07315Z" fill="white"/>
<path d="M5.46341 3.41464H5.12195V3.75611H5.46341V3.41464Z" fill="white"/>
<path d="M5.46341 4.09753H5.12195V4.439H5.46341V4.09753Z" fill="white"/>
<path d="M5.46341 4.43903H5.12195V4.78049H5.46341V4.43903Z" fill="white"/>
<path d="M5.46341 10.2439H5.12195V10.5853H5.46341V10.2439Z" fill="white"/>
<path d="M5.46341 10.5854H5.12195V10.9268H5.46341V10.5854Z" fill="white"/>
<path d="M5.46341 11.2683H5.12195V11.6098H5.46341V11.2683Z" fill="white"/>
<path d="M5.46341 12.2927H5.12195V12.6341H5.46341V12.2927Z" fill="white"/>
<path d="M5.46341 12.6342H5.12195V12.9756H5.46341V12.6342Z" fill="white"/>
<path d="M5.46341 12.9756H5.12195V13.3171H5.46341V12.9756Z" fill="white"/>
<path d="M5.8049 0.341492H5.46344V0.682955H5.8049V0.341492Z" fill="white"/>
<path d="M5.8049 0.682953H5.46344V1.02442H5.8049V0.682953Z" fill="white"/>
<path d="M5.8049 2.0488H5.46344V2.39026H5.8049V2.0488Z" fill="white"/>
<path d="M5.8049 2.73166H5.46344V3.07312H5.8049V2.73166Z" fill="white"/>
<path d="M5.8049 3.07315H5.46344V3.41461H5.8049V3.07315Z" fill="white"/>
<path d="M5.8049 4.43903H5.46344V4.78049H5.8049V4.43903Z" fill="white"/>
<path d="M5.8049 8.87802H5.46344V9.21948H5.8049V8.87802Z" fill="white"/>
<path d="M5.8049 9.21948H5.46344V9.56095H5.8049V9.21948Z" fill="white"/>
<path d="M5.8049 9.56097H5.46344V9.90244H5.8049V9.56097Z" fill="white"/>
<path d="M5.8049 10.2439H5.46344V10.5853H5.8049V10.2439Z" fill="white"/>
<path d="M5.8049 10.5854H5.46344V10.9268H5.8049V10.5854Z" fill="white"/>
<path d="M5.8049 11.2683H5.46344V11.6098H5.8049V11.2683Z" fill="white"/>
<path d="M5.8049 13.6585H5.46344V14H5.8049V13.6585Z" fill="white"/>
<path d="M6.14633 0H5.80487V0.341463H6.14633V0Z" fill="white"/>
<path d="M6.14633 0.341492H5.80487V0.682955H6.14633V0.341492Z" fill="white"/>
<path d="M6.14633 0.682953H5.80487V1.02442H6.14633V0.682953Z" fill="white"/>
<path d="M6.14633 1.02435H5.80487V1.36582H6.14633V1.02435Z" fill="white"/>
<path d="M6.14633 1.70734H5.80487V2.0488H6.14633V1.70734Z" fill="white"/>
<path d="M6.14633 2.73166H5.80487V3.07312H6.14633V2.73166Z" fill="white"/>
<path d="M6.14633 3.75613H5.80487V4.0976H6.14633V3.75613Z" fill="white"/>
<path d="M6.14633 4.09753H5.80487V4.439H6.14633V4.09753Z" fill="white"/>
<path d="M6.14633 4.43903H5.80487V4.78049H6.14633V4.43903Z" fill="white"/>
<path d="M6.14633 4.78052H5.80487V5.12198H6.14633V4.78052Z" fill="white"/>
<path d="M6.14633 8.87802H5.80487V9.21948H6.14633V8.87802Z" fill="white"/>
<path d="M6.14633 9.21948H5.80487V9.56095H6.14633V9.21948Z" fill="white"/>
<path d="M6.14633 9.56097H5.80487V9.90244H6.14633V9.56097Z" fill="white"/>
<path d="M6.14633 9.90247H5.80487V10.2439H6.14633V9.90247Z" fill="white"/>
<path d="M6.14633 10.5854H5.80487V10.9268H6.14633V10.5854Z" fill="white"/>
<path d="M6.14633 11.2683H5.80487V11.6098H6.14633V11.2683Z" fill="white"/>
<path d="M6.14633 12.2927H5.80487V12.6341H6.14633V12.2927Z" fill="white"/>
<path d="M6.14633 12.6342H5.80487V12.9756H6.14633V12.6342Z" fill="white"/>
<path d="M6.14633 12.9756H5.80487V13.3171H6.14633V12.9756Z" fill="white"/>
<path d="M6.48783 0H6.14636V0.341463H6.48783V0Z" fill="white"/>
<path d="M6.48783 0.341492H6.14636V0.682955H6.48783V0.341492Z" fill="white"/>
<path d="M6.48783 0.682953H6.14636V1.02442H6.48783V0.682953Z" fill="white"/>
<path d="M6.48783 2.0488H6.14636V2.39026H6.48783V2.0488Z" fill="white"/>
<path d="M6.48783 2.73166H6.14636V3.07312H6.48783V2.73166Z" fill="white"/>
<path d="M6.48783 3.07315H6.14636V3.41461H6.48783V3.07315Z" fill="white"/>
<path d="M6.48783 4.09753H6.14636V4.439H6.48783V4.09753Z" fill="white"/>
<path d="M6.48783 4.78052H6.14636V5.12198H6.48783V4.78052Z" fill="white"/>
<path d="M6.48783 9.21948H6.14636V9.56095H6.48783V9.21948Z" fill="white"/>
<path d="M6.48783 9.90247H6.14636V10.2439H6.48783V9.90247Z" fill="white"/>
<path d="M6.48783 10.5854H6.14636V10.9268H6.48783V10.5854Z" fill="white"/>
<path d="M6.48783 10.9268H6.14636V11.2683H6.48783V10.9268Z" fill="white"/>
<path d="M6.48783 11.9512H6.14636V12.2927H6.48783V11.9512Z" fill="white"/>
<path d="M6.48783 12.2927H6.14636V12.6341H6.48783V12.2927Z" fill="white"/>
<path d="M6.48783 13.6585H6.14636V14H6.48783V13.6585Z" fill="white"/>
<path d="M6.82926 0.682953H6.48779V1.02442H6.82926V0.682953Z" fill="white"/>
<path d="M6.82926 2.73166H6.48779V3.07312H6.82926V2.73166Z" fill="white"/>
<path d="M6.82926 4.43903H6.48779V4.78049H6.82926V4.43903Z" fill="white"/>
<path d="M6.82926 9.21948H6.48779V9.56095H6.82926V9.21948Z" fill="white"/>
<path d="M6.82926 9.56097H6.48779V9.90244H6.82926V9.56097Z" fill="white"/>
<path d="M6.82926 11.2683H6.48779V11.6098H6.82926V11.2683Z" fill="white"/>
<path d="M6.82926 11.6098H6.48779V11.9512H6.82926V11.6098Z" fill="white"/>
<path d="M6.82926 12.2927H6.48779V12.6341H6.82926V12.2927Z" fill="white"/>
<path d="M6.82926 12.6342H6.48779V12.9756H6.82926V12.6342Z" fill="white"/>
<path d="M6.82926 12.9756H6.48779V13.3171H6.82926V12.9756Z" fill="white"/>
<path d="M6.82926 13.317H6.48779V13.6585H6.82926V13.317Z" fill="white"/>
<path d="M6.82926 13.6585H6.48779V14H6.82926V13.6585Z" fill="white"/>
<path d="M7.17075 0H6.82928V0.341463H7.17075V0Z" fill="white"/>
<path d="M7.17075 0.341492H6.82928V0.682955H7.17075V0.341492Z" fill="white"/>
<path d="M7.17075 1.02435H6.82928V1.36582H7.17075V1.02435Z" fill="white"/>
<path d="M7.17075 2.0488H6.82928V2.39026H7.17075V2.0488Z" fill="white"/>
<path d="M7.17075 2.39023H6.82928V2.73169H7.17075V2.39023Z" fill="white"/>
<path d="M7.17075 2.73166H6.82928V3.07312H7.17075V2.73166Z" fill="white"/>
<path d="M7.17075 3.07315H6.82928V3.41461H7.17075V3.07315Z" fill="white"/>
<path d="M7.17075 3.75613H6.82928V4.0976H7.17075V3.75613Z" fill="white"/>
<path d="M7.17075 4.09753H6.82928V4.439H7.17075V4.09753Z" fill="white"/>
<path d="M7.17075 4.43903H6.82928V4.78049H7.17075V4.43903Z" fill="white"/>
<path d="M7.17075 4.78052H6.82928V5.12198H7.17075V4.78052Z" fill="white"/>
<path d="M7.17075 8.87802H6.82928V9.21948H7.17075V8.87802Z" fill="white"/>
<path d="M7.17075 9.21948H6.82928V9.56095H7.17075V9.21948Z" fill="white"/>
<path d="M7.17075 9.56097H6.82928V9.90244H7.17075V9.56097Z" fill="white"/>
<path d="M7.17075 9.90247H6.82928V10.2439H7.17075V9.90247Z" fill="white"/>
<path d="M7.17075 10.2439H6.82928V10.5853H7.17075V10.2439Z" fill="white"/>
<path d="M7.17075 10.5854H6.82928V10.9268H7.17075V10.5854Z" fill="white"/>
<path d="M7.17075 10.9268H6.82928V11.2683H7.17075V10.9268Z" fill="white"/>
<path d="M7.17075 11.6098H6.82928V11.9512H7.17075V11.6098Z" fill="white"/>
<path d="M7.17075 11.9512H6.82928V12.2927H7.17075V11.9512Z" fill="white"/>
<path d="M7.17075 12.9756H6.82928V13.3171H7.17075V12.9756Z" fill="white"/>
<path d="M7.17075 13.317H6.82928V13.6585H7.17075V13.317Z" fill="white"/>
<path d="M7.17075 13.6585H6.82928V14H7.17075V13.6585Z" fill="white"/>
<path d="M7.51218 0H7.17072V0.341463H7.51218V0Z" fill="white"/>
<path d="M7.51218 1.36584H7.17072V1.70731H7.51218V1.36584Z" fill="white"/>
<path d="M7.51218 1.70734H7.17072V2.0488H7.51218V1.70734Z" fill="white"/>
<path d="M7.51218 2.39023H7.17072V2.73169H7.51218V2.39023Z" fill="white"/>
<path d="M7.51218 2.73166H7.17072V3.07312H7.51218V2.73166Z" fill="white"/>
<path d="M7.51218 4.78052H7.17072V5.12198H7.51218V4.78052Z" fill="white"/>
<path d="M7.51218 9.21948H7.17072V9.56095H7.51218V9.21948Z" fill="white"/>
<path d="M7.51218 9.56097H7.17072V9.90244H7.51218V9.56097Z" fill="white"/>
<path d="M7.51218 10.2439H7.17072V10.5853H7.51218V10.2439Z" fill="white"/>
<path d="M7.51218 10.5854H7.17072V10.9268H7.51218V10.5854Z" fill="white"/>
<path d="M7.51218 11.9512H7.17072V12.2927H7.51218V11.9512Z" fill="white"/>
<path d="M7.51218 12.2927H7.17072V12.6341H7.51218V12.2927Z" fill="white"/>
<path d="M7.51218 12.9756H7.17072V13.3171H7.51218V12.9756Z" fill="white"/>
<path d="M7.85367 0.682953H7.51221V1.02442H7.85367V0.682953Z" fill="white"/>
<path d="M7.85367 1.02435H7.51221V1.36582H7.85367V1.02435Z" fill="white"/>
<path d="M7.85367 1.70734H7.51221V2.0488H7.85367V1.70734Z" fill="white"/>
<path d="M7.85367 2.0488H7.51221V2.39026H7.85367V2.0488Z" fill="white"/>
<path d="M7.85367 2.73166H7.51221V3.07312H7.85367V2.73166Z" fill="white"/>
<path d="M7.85367 3.07315H7.51221V3.41461H7.85367V3.07315Z" fill="white"/>
<path d="M7.85367 4.09753H7.51221V4.439H7.85367V4.09753Z" fill="white"/>
<path d="M7.85367 4.43903H7.51221V4.78049H7.85367V4.43903Z" fill="white"/>
<path d="M7.85367 4.78052H7.51221V5.12198H7.85367V4.78052Z" fill="white"/>
<path d="M7.85367 9.21948H7.51221V9.56095H7.85367V9.21948Z" fill="white"/>
<path d="M7.85367 9.56097H7.51221V9.90244H7.85367V9.56097Z" fill="white"/>
<path d="M7.85367 11.2683H7.51221V11.6098H7.85367V11.2683Z" fill="white"/>
<path d="M7.85367 11.6098H7.51221V11.9512H7.85367V11.6098Z" fill="white"/>
<path d="M7.85367 12.2927H7.51221V12.6341H7.85367V12.2927Z" fill="white"/>
<path d="M7.85367 12.9756H7.51221V13.3171H7.85367V12.9756Z" fill="white"/>
<path d="M8.1951 0H7.85364V0.341463H8.1951V0Z" fill="white"/>
<path d="M8.1951 1.02435H7.85364V1.36582H8.1951V1.02435Z" fill="white"/>
<path d="M8.1951 1.36584H7.85364V1.70731H8.1951V1.36584Z" fill="white"/>
<path d="M8.1951 1.70734H7.85364V2.0488H8.1951V1.70734Z" fill="white"/>
<path d="M8.1951 3.07315H7.85364V3.41461H8.1951V3.07315Z" fill="white"/>
<path d="M8.1951 3.41464H7.85364V3.75611H8.1951V3.41464Z" fill="white"/>
<path d="M8.1951 3.75613H7.85364V4.0976H8.1951V3.75613Z" fill="white"/>
<path d="M8.1951 4.78052H7.85364V5.12198H8.1951V4.78052Z" fill="white"/>
<path d="M8.1951 8.87802H7.85364V9.21948H8.1951V8.87802Z" fill="white"/>
<path d="M8.1951 9.56097H7.85364V9.90244H8.1951V9.56097Z" fill="white"/>
<path d="M8.1951 9.90247H7.85364V10.2439H8.1951V9.90247Z" fill="white"/>
<path d="M8.1951 10.9268H7.85364V11.2683H8.1951V10.9268Z" fill="white"/>
<path d="M8.1951 11.2683H7.85364V11.6098H8.1951V11.2683Z" fill="white"/>
<path d="M8.1951 11.6098H7.85364V11.9512H8.1951V11.6098Z" fill="white"/>
<path d="M8.1951 11.9512H7.85364V12.2927H8.1951V11.9512Z" fill="white"/>
<path d="M8.1951 12.2927H7.85364V12.6341H8.1951V12.2927Z" fill="white"/>
<path d="M8.1951 13.6585H7.85364V14H8.1951V13.6585Z" fill="white"/>
<path d="M8.53659 0.682953H8.19513V1.02442H8.53659V0.682953Z" fill="white"/>
<path d="M8.53659 1.70734H8.19513V2.0488H8.53659V1.70734Z" fill="white"/>
<path d="M8.53659 2.0488H8.19513V2.39026H8.53659V2.0488Z" fill="white"/>
<path d="M8.53659 2.73166H8.19513V3.07312H8.53659V2.73166Z" fill="white"/>
<path d="M8.53659 3.07315H8.19513V3.41461H8.53659V3.07315Z" fill="white"/>
<path d="M8.53659 3.75613H8.19513V4.0976H8.53659V3.75613Z" fill="white"/>
<path d="M8.53659 4.78052H8.19513V5.12198H8.53659V4.78052Z" fill="white"/>
<path d="M8.53659 9.56097H8.19513V9.90244H8.53659V9.56097Z" fill="white"/>
<path d="M8.53659 10.9268H8.19513V11.2683H8.53659V10.9268Z" fill="white"/>
<path d="M8.53659 11.2683H8.19513V11.6098H8.53659V11.2683Z" fill="white"/>
<path d="M8.53659 11.6098H8.19513V11.9512H8.53659V11.6098Z" fill="white"/>
<path d="M8.53659 12.6342H8.19513V12.9756H8.53659V12.6342Z" fill="white"/>
<path d="M8.53659 13.317H8.19513V13.6585H8.53659V13.317Z" fill="white"/>
<path d="M8.87802 0H8.53656V0.341463H8.87802V0Z" fill="white"/>
<path d="M8.87802 1.70734H8.53656V2.0488H8.87802V1.70734Z" fill="white"/>
<path d="M8.87802 2.39023H8.53656V2.73169H8.87802V2.39023Z" fill="white"/>
<path d="M8.87802 3.07315H8.53656V3.41461H8.87802V3.07315Z" fill="white"/>
<path d="M8.87802 3.75613H8.53656V4.0976H8.87802V3.75613Z" fill="white"/>
<path d="M8.87802 8.87802H8.53656V9.21948H8.87802V8.87802Z" fill="white"/>
<path d="M8.87802 9.21948H8.53656V9.56095H8.87802V9.21948Z" fill="white"/>
<path d="M8.87802 9.56097H8.53656V9.90244H8.87802V9.56097Z" fill="white"/>
<path d="M8.87802 9.90247H8.53656V10.2439H8.87802V9.90247Z" fill="white"/>
<path d="M8.87802 10.9268H8.53656V11.2683H8.87802V10.9268Z" fill="white"/>
<path d="M8.87802 11.2683H8.53656V11.6098H8.87802V11.2683Z" fill="white"/>
<path d="M8.87802 11.6098H8.53656V11.9512H8.87802V11.6098Z" fill="white"/>
<path d="M8.87802 12.2927H8.53656V12.6341H8.87802V12.2927Z" fill="white"/>
<path d="M8.87802 12.9756H8.53656V13.3171H8.87802V12.9756Z" fill="white"/>
<path d="M8.87802 13.317H8.53656V13.6585H8.87802V13.317Z" fill="white"/>
<path d="M8.87802 13.6585H8.53656V14H8.87802V13.6585Z" fill="white"/>
<path d="M9.21952 0H8.87805V0.341463H9.21952V0Z" fill="white"/>
<path d="M9.21952 0.341492H8.87805V0.682955H9.21952V0.341492Z" fill="white"/>
<path d="M9.21952 0.682953H8.87805V1.02442H9.21952V0.682953Z" fill="white"/>
<path d="M9.21952 1.02435H8.87805V1.36582H9.21952V1.02435Z" fill="white"/>
<path d="M9.21952 1.36584H8.87805V1.70731H9.21952V1.36584Z" fill="white"/>
<path d="M9.21952 2.0488H8.87805V2.39026H9.21952V2.0488Z" fill="white"/>
<path d="M9.21952 2.39023H8.87805V2.73169H9.21952V2.39023Z" fill="white"/>
<path d="M9.21952 2.73166H8.87805V3.07312H9.21952V2.73166Z" fill="white"/>
<path d="M9.21952 3.07315H8.87805V3.41461H9.21952V3.07315Z" fill="white"/>
<path d="M9.21952 3.75613H8.87805V4.0976H9.21952V3.75613Z" fill="white"/>
<path d="M9.21952 5.46341H8.87805V5.80487H9.21952V5.46341Z" fill="white"/>
<path d="M9.21952 5.80484H8.87805V6.1463H9.21952V5.80484Z" fill="white"/>
<path d="M9.21952 6.14633H8.87805V6.4878H9.21952V6.14633Z" fill="white"/>
<path d="M9.21952 6.48782H8.87805V6.82929H9.21952V6.48782Z" fill="white"/>
<path d="M9.21952 6.82932H8.87805V7.17078H9.21952V6.82932Z" fill="white"/>
<path d="M9.21952 7.17068H8.87805V7.51215H9.21952V7.17068Z" fill="white"/>
<path d="M9.21952 8.53659H8.87805V8.87805H9.21952V8.53659Z" fill="white"/>
<path d="M9.21952 8.87802H8.87805V9.21948H9.21952V8.87802Z" fill="white"/>
<path d="M9.21952 9.21948H8.87805V9.56095H9.21952V9.21948Z" fill="white"/>
<path d="M9.21952 9.56097H8.87805V9.90244H9.21952V9.56097Z" fill="white"/>
<path d="M9.21952 10.2439H8.87805V10.5853H9.21952V10.2439Z" fill="white"/>
<path d="M9.21952 10.5854H8.87805V10.9268H9.21952V10.5854Z" fill="white"/>
<path d="M9.21952 10.9268H8.87805V11.2683H9.21952V10.9268Z" fill="white"/>
<path d="M9.21952 11.9512H8.87805V12.2927H9.21952V11.9512Z" fill="white"/>
<path d="M9.21952 12.6342H8.87805V12.9756H9.21952V12.6342Z" fill="white"/>
<path d="M9.21952 13.317H8.87805V13.6585H9.21952V13.317Z" fill="white"/>
<path d="M9.21952 13.6585H8.87805V14H9.21952V13.6585Z" fill="white"/>
<path d="M9.56101 0H9.21954V0.341463H9.56101V0Z" fill="white"/>
<path d="M9.56101 0.682953H9.21954V1.02442H9.56101V0.682953Z" fill="white"/>
<path d="M9.56101 1.36584H9.21954V1.70731H9.56101V1.36584Z" fill="white"/>
<path d="M9.56101 3.75613H9.21954V4.0976H9.56101V3.75613Z" fill="white"/>
<path d="M9.56101 4.09753H9.21954V4.439H9.56101V4.09753Z" fill="white"/>
<path d="M9.56101 4.78052H9.21954V5.12198H9.56101V4.78052Z" fill="white"/>
<path d="M9.56101 8.19516H9.21954V8.53662H9.56101V8.19516Z" fill="white"/>
<path d="M9.56101 8.87802H9.21954V9.21948H9.56101V8.87802Z" fill="white"/>
<path d="M9.56101 9.21948H9.21954V9.56095H9.56101V9.21948Z" fill="white"/>
<path d="M9.56101 10.5854H9.21954V10.9268H9.56101V10.5854Z" fill="white"/>
<path d="M9.56101 11.2683H9.21954V11.6098H9.56101V11.2683Z" fill="white"/>
<path d="M9.56101 11.6098H9.21954V11.9512H9.56101V11.6098Z" fill="white"/>
<path d="M9.56101 12.2927H9.21954V12.6341H9.56101V12.2927Z" fill="white"/>
<path d="M9.56101 12.6342H9.21954V12.9756H9.56101V12.6342Z" fill="white"/>
<path d="M9.56101 12.9756H9.21954V13.3171H9.56101V12.9756Z" fill="white"/>
<path d="M9.56101 13.317H9.21954V13.6585H9.56101V13.317Z" fill="white"/>
<path d="M9.56101 13.6585H9.21954V14H9.56101V13.6585Z" fill="white"/>
<path d="M9.90244 0H9.56097V0.341463H9.90244V0Z" fill="white"/>
<path d="M9.90244 0.682953H9.56097V1.02442H9.90244V0.682953Z" fill="white"/>
<path d="M9.90244 1.36584H9.56097V1.70731H9.90244V1.36584Z" fill="white"/>
<path d="M9.90244 1.70734H9.56097V2.0488H9.90244V1.70734Z" fill="white"/>
<path d="M9.90244 2.0488H9.56097V2.39026H9.90244V2.0488Z" fill="white"/>
<path d="M9.90244 2.39023H9.56097V2.73169H9.90244V2.39023Z" fill="white"/>
<path d="M9.90244 3.41464H9.56097V3.75611H9.90244V3.41464Z" fill="white"/>
<path d="M9.90244 4.43903H9.56097V4.78049H9.90244V4.43903Z" fill="white"/>
<path d="M9.90244 5.80484H9.56097V6.1463H9.90244V5.80484Z" fill="white"/>
<path d="M9.90244 7.17068H9.56097V7.51215H9.90244V7.17068Z" fill="white"/>
<path d="M9.90244 7.51218H9.56097V7.85364H9.90244V7.51218Z" fill="white"/>
<path d="M9.90244 7.85367H9.56097V8.19513H9.90244V7.85367Z" fill="white"/>
<path d="M9.90244 8.19516H9.56097V8.53662H9.90244V8.19516Z" fill="white"/>
<path d="M9.90244 8.53659H9.56097V8.87805H9.90244V8.53659Z" fill="white"/>
<path d="M9.90244 10.5854H9.56097V10.9268H9.90244V10.5854Z" fill="white"/>
<path d="M9.90244 10.9268H9.56097V11.2683H9.90244V10.9268Z" fill="white"/>
<path d="M9.90244 11.9512H9.56097V12.2927H9.90244V11.9512Z" fill="white"/>
<path d="M9.90244 12.6342H9.56097V12.9756H9.90244V12.6342Z" fill="white"/>
<path d="M9.90244 13.317H9.56097V13.6585H9.90244V13.317Z" fill="white"/>
<path d="M10.2439 0H9.9024V0.341463H10.2439V0Z" fill="white"/>
<path d="M10.2439 1.02435H9.9024V1.36582H10.2439V1.02435Z" fill="white"/>
<path d="M10.2439 1.70734H9.9024V2.0488H10.2439V1.70734Z" fill="white"/>
<path d="M10.2439 2.39023H9.9024V2.73169H10.2439V2.39023Z" fill="white"/>
<path d="M10.2439 3.07315H9.9024V3.41461H10.2439V3.07315Z" fill="white"/>
<path d="M10.2439 3.75613H9.9024V4.0976H10.2439V3.75613Z" fill="white"/>
<path d="M10.2439 4.43903H9.9024V4.78049H10.2439V4.43903Z" fill="white"/>
<path d="M10.2439 5.80484H9.9024V6.1463H10.2439V5.80484Z" fill="white"/>
<path d="M10.2439 6.48782H9.9024V6.82929H10.2439V6.48782Z" fill="white"/>
<path d="M10.2439 6.82932H9.9024V7.17078H10.2439V6.82932Z" fill="white"/>
<path d="M10.2439 7.17068H9.9024V7.51215H10.2439V7.17068Z" fill="white"/>
<path d="M10.2439 7.51218H9.9024V7.85364H10.2439V7.51218Z" fill="white"/>
<path d="M10.2439 7.85367H9.9024V8.19513H10.2439V7.85367Z" fill="white"/>
<path d="M10.2439 8.87802H9.9024V9.21948H10.2439V8.87802Z" fill="white"/>
<path d="M10.2439 9.21948H9.9024V9.56095H10.2439V9.21948Z" fill="white"/>
<path d="M10.2439 9.90247H9.9024V10.2439H10.2439V9.90247Z" fill="white"/>
<path d="M10.2439 10.5854H9.9024V10.9268H10.2439V10.5854Z" fill="white"/>
<path d="M10.2439 10.9268H9.9024V11.2683H10.2439V10.9268Z" fill="white"/>
<path d="M10.2439 12.2927H9.9024V12.6341H10.2439V12.2927Z" fill="white"/>
<path d="M10.2439 12.6342H9.9024V12.9756H10.2439V12.6342Z" fill="white"/>
<path d="M10.2439 12.9756H9.9024V13.3171H10.2439V12.9756Z" fill="white"/>
<path d="M10.5854 0H10.2439V0.341463H10.5854V0Z" fill="white"/>
<path d="M10.5854 0.341492H10.2439V0.682955H10.5854V0.341492Z" fill="white"/>
<path d="M10.5854 1.70734H10.2439V2.0488H10.5854V1.70734Z" fill="white"/>
<path d="M10.5854 2.0488H10.2439V2.39026H10.5854V2.0488Z" fill="white"/>
<path d="M10.5854 2.73166H10.2439V3.07312H10.5854V2.73166Z" fill="white"/>
<path d="M10.5854 3.07315H10.2439V3.41461H10.5854V3.07315Z" fill="white"/>
<path d="M10.5854 3.41464H10.2439V3.75611H10.5854V3.41464Z" fill="white"/>
<path d="M10.5854 4.09753H10.2439V4.439H10.5854V4.09753Z" fill="white"/>
<path d="M10.5854 4.78052H10.2439V5.12198H10.5854V4.78052Z" fill="white"/>
<path d="M10.5854 5.80484H10.2439V6.1463H10.5854V5.80484Z" fill="white"/>
<path d="M10.5854 6.14633H10.2439V6.4878H10.5854V6.14633Z" fill="white"/>
<path d="M10.5854 7.17068H10.2439V7.51215H10.5854V7.17068Z" fill="white"/>
<path d="M10.5854 7.51218H10.2439V7.85364H10.5854V7.51218Z" fill="white"/>
<path d="M10.5854 8.19516H10.2439V8.53662H10.5854V8.19516Z" fill="white"/>
<path d="M10.5854 8.53659H10.2439V8.87805H10.5854V8.53659Z" fill="white"/>
<path d="M10.5854 8.87802H10.2439V9.21948H10.5854V8.87802Z" fill="white"/>
<path d="M10.5854 9.21948H10.2439V9.56095H10.5854V9.21948Z" fill="white"/>
<path d="M10.5854 9.90247H10.2439V10.2439H10.5854V9.90247Z" fill="white"/>
<path d="M10.5854 10.2439H10.2439V10.5853H10.5854V10.2439Z" fill="white"/>
<path d="M10.5854 10.5854H10.2439V10.9268H10.5854V10.5854Z" fill="white"/>
<path d="M10.5854 11.2683H10.2439V11.6098H10.5854V11.2683Z" fill="white"/>
<path d="M10.5854 12.9756H10.2439V13.3171H10.5854V12.9756Z" fill="white"/>
<path d="M10.5854 13.6585H10.2439V14H10.5854V13.6585Z" fill="white"/>
<path d="M10.9268 0H10.5853V0.341463H10.9268V0Z" fill="white"/>
<path d="M10.9268 0.341492H10.5853V0.682955H10.9268V0.341492Z" fill="white"/>
<path d="M10.9268 0.682953H10.5853V1.02442H10.9268V0.682953Z" fill="white"/>
<path d="M10.9268 1.02435H10.5853V1.36582H10.9268V1.02435Z" fill="white"/>
<path d="M10.9268 1.70734H10.5853V2.0488H10.9268V1.70734Z" fill="white"/>
<path d="M10.9268 4.78052H10.5853V5.12198H10.9268V4.78052Z" fill="white"/>
<path d="M10.9268 5.46341H10.5853V5.80487H10.9268V5.46341Z" fill="white"/>
<path d="M10.9268 5.80484H10.5853V6.1463H10.9268V5.80484Z" fill="white"/>
<path d="M10.9268 6.48782H10.5853V6.82929H10.9268V6.48782Z" fill="white"/>
<path d="M10.9268 7.85367H10.5853V8.19513H10.9268V7.85367Z" fill="white"/>
<path d="M10.9268 8.53659H10.5853V8.87805H10.9268V8.53659Z" fill="white"/>
<path d="M10.9268 8.87802H10.5853V9.21948H10.9268V8.87802Z" fill="white"/>
<path d="M10.9268 9.21948H10.5853V9.56095H10.9268V9.21948Z" fill="white"/>
<path d="M10.9268 9.56097H10.5853V9.90244H10.9268V9.56097Z" fill="white"/>
<path d="M10.9268 10.2439H10.5853V10.5853H10.9268V10.2439Z" fill="white"/>
<path d="M10.9268 10.9268H10.5853V11.2683H10.9268V10.9268Z" fill="white"/>
<path d="M10.9268 11.6098H10.5853V11.9512H10.9268V11.6098Z" fill="white"/>
<path d="M10.9268 11.9512H10.5853V12.2927H10.9268V11.9512Z" fill="white"/>
<path d="M10.9268 12.6342H10.5853V12.9756H10.9268V12.6342Z" fill="white"/>
<path d="M10.9268 12.9756H10.5853V13.3171H10.9268V12.9756Z" fill="white"/>
<path d="M10.9268 13.317H10.5853V13.6585H10.9268V13.317Z" fill="white"/>
<path d="M11.2683 0H10.9268V0.341463H11.2683V0Z" fill="white"/>
<path d="M11.2683 0.341492H10.9268V0.682955H11.2683V0.341492Z" fill="white"/>
<path d="M11.2683 1.36584H10.9268V1.70731H11.2683V1.36584Z" fill="white"/>
<path d="M11.2683 1.70734H10.9268V2.0488H11.2683V1.70734Z" fill="white"/>
<path d="M11.2683 2.0488H10.9268V2.39026H11.2683V2.0488Z" fill="white"/>
<path d="M11.2683 2.39023H10.9268V2.73169H11.2683V2.39023Z" fill="white"/>
<path d="M11.2683 3.07315H10.9268V3.41461H11.2683V3.07315Z" fill="white"/>
<path d="M11.2683 3.41464H10.9268V3.75611H11.2683V3.41464Z" fill="white"/>
<path d="M11.2683 4.09753H10.9268V4.439H11.2683V4.09753Z" fill="white"/>
<path d="M11.2683 4.43903H10.9268V4.78049H11.2683V4.43903Z" fill="white"/>
<path d="M11.2683 5.46341H10.9268V5.80487H11.2683V5.46341Z" fill="white"/>
<path d="M11.2683 6.48782H10.9268V6.82929H11.2683V6.48782Z" fill="white"/>
<path d="M11.2683 7.51218H10.9268V7.85364H11.2683V7.51218Z" fill="white"/>
<path d="M11.2683 7.85367H10.9268V8.19513H11.2683V7.85367Z" fill="white"/>
<path d="M11.2683 9.21948H10.9268V9.56095H11.2683V9.21948Z" fill="white"/>
<path d="M11.2683 9.90247H10.9268V10.2439H11.2683V9.90247Z" fill="white"/>
<path d="M11.2683 10.2439H10.9268V10.5853H11.2683V10.2439Z" fill="white"/>
<path d="M11.2683 10.5854H10.9268V10.9268H11.2683V10.5854Z" fill="white"/>
<path d="M11.2683 10.9268H10.9268V11.2683H11.2683V10.9268Z" fill="white"/>
<path d="M11.2683 11.2683H10.9268V11.6098H11.2683V11.2683Z" fill="white"/>
<path d="M11.2683 11.6098H10.9268V11.9512H11.2683V11.6098Z" fill="white"/>
<path d="M11.2683 11.9512H10.9268V12.2927H11.2683V11.9512Z" fill="white"/>
<path d="M11.2683 12.2927H10.9268V12.6341H11.2683V12.2927Z" fill="white"/>
<path d="M11.2683 12.6342H10.9268V12.9756H11.2683V12.6342Z" fill="white"/>
<path d="M11.2683 12.9756H10.9268V13.3171H11.2683V12.9756Z" fill="white"/>
<path d="M11.2683 13.317H10.9268V13.6585H11.2683V13.317Z" fill="white"/>
<path d="M11.6098 2.73166H11.2683V3.07312H11.6098V2.73166Z" fill="white"/>
<path d="M11.6098 3.07315H11.2683V3.41461H11.6098V3.07315Z" fill="white"/>
<path d="M11.6098 4.09753H11.2683V4.439H11.6098V4.09753Z" fill="white"/>
<path d="M11.6098 4.78052H11.2683V5.12198H11.6098V4.78052Z" fill="white"/>
<path d="M11.6098 5.12198H11.2683V5.46344H11.6098V5.12198Z" fill="white"/>
<path d="M11.6098 5.80484H11.2683V6.1463H11.6098V5.80484Z" fill="white"/>
<path d="M11.6098 7.17068H11.2683V7.51215H11.6098V7.17068Z" fill="white"/>
<path d="M11.6098 7.85367H11.2683V8.19513H11.6098V7.85367Z" fill="white"/>
<path d="M11.6098 8.19516H11.2683V8.53662H11.6098V8.19516Z" fill="white"/>
<path d="M11.6098 8.53659H11.2683V8.87805H11.6098V8.53659Z" fill="white"/>
<path d="M11.6098 9.21948H11.2683V9.56095H11.6098V9.21948Z" fill="white"/>
<path d="M11.6098 9.56097H11.2683V9.90244H11.6098V9.56097Z" fill="white"/>
<path d="M11.6098 9.90247H11.2683V10.2439H11.6098V9.90247Z" fill="white"/>
<path d="M11.6098 10.5854H11.2683V10.9268H11.6098V10.5854Z" fill="white"/>
<path d="M11.6098 10.9268H11.2683V11.2683H11.6098V10.9268Z" fill="white"/>
<path d="M11.6098 12.2927H11.2683V12.6341H11.6098V12.2927Z" fill="white"/>
<path d="M11.6098 12.9756H11.2683V13.3171H11.6098V12.9756Z" fill="white"/>
<path d="M11.9512 3.07315H11.6097V3.41461H11.9512V3.07315Z" fill="white"/>
<path d="M11.9512 3.41464H11.6097V3.75611H11.9512V3.41464Z" fill="white"/>
<path d="M11.9512 3.75613H11.6097V4.0976H11.9512V3.75613Z" fill="white"/>
<path d="M11.9512 4.43903H11.6097V4.78049H11.9512V4.43903Z" fill="white"/>
<path d="M11.9512 4.78052H11.6097V5.12198H11.9512V4.78052Z" fill="white"/>
<path d="M11.9512 5.12198H11.6097V5.46344H11.9512V5.12198Z" fill="white"/>
<path d="M11.9512 5.80484H11.6097V6.1463H11.9512V5.80484Z" fill="white"/>
<path d="M11.9512 6.14633H11.6097V6.4878H11.9512V6.14633Z" fill="white"/>
<path d="M11.9512 6.48782H11.6097V6.82929H11.9512V6.48782Z" fill="white"/>
<path d="M11.9512 7.17068H11.6097V7.51215H11.9512V7.17068Z" fill="white"/>
<path d="M11.9512 7.51218H11.6097V7.85364H11.9512V7.51218Z" fill="white"/>
<path d="M11.9512 7.85367H11.6097V8.19513H11.9512V7.85367Z" fill="white"/>
<path d="M11.9512 8.19516H11.6097V8.53662H11.9512V8.19516Z" fill="white"/>
<path d="M11.9512 8.53659H11.6097V8.87805H11.9512V8.53659Z" fill="white"/>
<path d="M11.9512 8.87802H11.6097V9.21948H11.9512V8.87802Z" fill="white"/>
<path d="M11.9512 9.21948H11.6097V9.56095H11.9512V9.21948Z" fill="white"/>
<path d="M11.9512 9.90247H11.6097V10.2439H11.9512V9.90247Z" fill="white"/>
<path d="M11.9512 10.5854H11.6097V10.9268H11.9512V10.5854Z" fill="white"/>
<path d="M11.9512 10.9268H11.6097V11.2683H11.9512V10.9268Z" fill="white"/>
<path d="M11.9512 11.6098H11.6097V11.9512H11.9512V11.6098Z" fill="white"/>
<path d="M11.9512 12.2927H11.6097V12.6341H11.9512V12.2927Z" fill="white"/>
<path d="M11.9512 12.6342H11.6097V12.9756H11.9512V12.6342Z" fill="white"/>
<path d="M11.9512 12.9756H11.6097V13.3171H11.9512V12.9756Z" fill="white"/>
<path d="M12.2927 2.73166H11.9512V3.07312H12.2927V2.73166Z" fill="white"/>
<path d="M12.2927 3.07315H11.9512V3.41461H12.2927V3.07315Z" fill="white"/>
<path d="M12.2927 3.75613H11.9512V4.0976H12.2927V3.75613Z" fill="white"/>
<path d="M12.2927 4.78052H11.9512V5.12198H12.2927V4.78052Z" fill="white"/>
<path d="M12.2927 6.14633H11.9512V6.4878H12.2927V6.14633Z" fill="white"/>
<path d="M12.2927 6.48782H11.9512V6.82929H12.2927V6.48782Z" fill="white"/>
<path d="M12.2927 6.82932H11.9512V7.17078H12.2927V6.82932Z" fill="white"/>
<path d="M12.2927 7.85367H11.9512V8.19513H12.2927V7.85367Z" fill="white"/>
<path d="M12.2927 8.19516H11.9512V8.53662H12.2927V8.19516Z" fill="white"/>
<path d="M12.2927 9.21948H11.9512V9.56095H12.2927V9.21948Z" fill="white"/>
<path d="M12.2927 9.90247H11.9512V10.2439H12.2927V9.90247Z" fill="white"/>
<path d="M12.2927 10.9268H11.9512V11.2683H12.2927V10.9268Z" fill="white"/>
<path d="M12.2927 12.2927H11.9512V12.6341H12.2927V12.2927Z" fill="white"/>
<path d="M12.6341 2.73166H12.2927V3.07312H12.6341V2.73166Z" fill="white"/>
<path d="M12.6341 3.07315H12.2927V3.41461H12.6341V3.07315Z" fill="white"/>
<path d="M12.6341 3.41464H12.2927V3.75611H12.6341V3.41464Z" fill="white"/>
<path d="M12.6341 4.09753H12.2927V4.439H12.6341V4.09753Z" fill="white"/>
<path d="M12.6341 5.12198H12.2927V5.46344H12.6341V5.12198Z" fill="white"/>
<path d="M12.6341 6.14633H12.2927V6.4878H12.6341V6.14633Z" fill="white"/>
<path d="M12.6341 6.82932H12.2927V7.17078H12.6341V6.82932Z" fill="white"/>
<path d="M12.6341 7.17068H12.2927V7.51215H12.6341V7.17068Z" fill="white"/>
<path d="M12.6341 7.51218H12.2927V7.85364H12.6341V7.51218Z" fill="white"/>
<path d="M12.6341 7.85367H12.2927V8.19513H12.6341V7.85367Z" fill="white"/>
<path d="M12.6341 8.19516H12.2927V8.53662H12.6341V8.19516Z" fill="white"/>
<path d="M12.6341 8.53659H12.2927V8.87805H12.6341V8.53659Z" fill="white"/>
<path d="M12.6341 8.87802H12.2927V9.21948H12.6341V8.87802Z" fill="white"/>
<path d="M12.6341 9.21948H12.2927V9.56095H12.6341V9.21948Z" fill="white"/>
<path d="M12.6341 10.5854H12.2927V10.9268H12.6341V10.5854Z" fill="white"/>
<path d="M12.6341 10.9268H12.2927V11.2683H12.6341V10.9268Z" fill="white"/>
<path d="M12.6341 11.2683H12.2927V11.6098H12.6341V11.2683Z" fill="white"/>
<path d="M12.6341 11.6098H12.2927V11.9512H12.6341V11.6098Z" fill="white"/>
<path d="M12.6341 11.9512H12.2927V12.2927H12.6341V11.9512Z" fill="white"/>
<path d="M12.6341 12.2927H12.2927V12.6341H12.6341V12.2927Z" fill="white"/>
<path d="M12.9756 2.73166H12.6342V3.07312H12.9756V2.73166Z" fill="white"/>
<path d="M12.9756 3.41464H12.6342V3.75611H12.9756V3.41464Z" fill="white"/>
<path d="M12.9756 4.78052H12.6342V5.12198H12.9756V4.78052Z" fill="white"/>
<path d="M12.9756 5.46341H12.6342V5.80487H12.9756V5.46341Z" fill="white"/>
<path d="M12.9756 5.80484H12.6342V6.1463H12.9756V5.80484Z" fill="white"/>
<path d="M12.9756 6.48782H12.6342V6.82929H12.9756V6.48782Z" fill="white"/>
<path d="M12.9756 6.82932H12.6342V7.17078H12.9756V6.82932Z" fill="white"/>
<path d="M12.9756 7.17068H12.6342V7.51215H12.9756V7.17068Z" fill="white"/>
<path d="M12.9756 7.51218H12.6342V7.85364H12.9756V7.51218Z" fill="white"/>
<path d="M12.9756 7.85367H12.6342V8.19513H12.9756V7.85367Z" fill="white"/>
<path d="M12.9756 8.87802H12.6342V9.21948H12.9756V8.87802Z" fill="white"/>
<path d="M12.9756 9.21948H12.6342V9.56095H12.9756V9.21948Z" fill="white"/>
<path d="M12.9756 9.56097H12.6342V9.90244H12.9756V9.56097Z" fill="white"/>
<path d="M12.9756 10.2439H12.6342V10.5853H12.9756V10.2439Z" fill="white"/>
<path d="M12.9756 10.9268H12.6342V11.2683H12.9756V10.9268Z" fill="white"/>
<path d="M12.9756 11.9512H12.6342V12.2927H12.9756V11.9512Z" fill="white"/>
<path d="M13.317 4.09753H12.9756V4.439H13.317V4.09753Z" fill="white"/>
<path d="M13.317 4.43903H12.9756V4.78049H13.317V4.43903Z" fill="white"/>
<path d="M13.317 5.80484H12.9756V6.1463H13.317V5.80484Z" fill="white"/>
<path d="M13.317 6.14633H12.9756V6.4878H13.317V6.14633Z" fill="white"/>
<path d="M13.317 6.82932H12.9756V7.17078H13.317V6.82932Z" fill="white"/>
<path d="M13.317 7.51218H12.9756V7.85364H13.317V7.51218Z" fill="white"/>
<path d="M13.317 8.53659H12.9756V8.87805H13.317V8.53659Z" fill="white"/>
<path d="M13.317 8.87802H12.9756V9.21948H13.317V8.87802Z" fill="white"/>
<path d="M13.317 9.21948H12.9756V9.56095H13.317V9.21948Z" fill="white"/>
<path d="M13.317 9.56097H12.9756V9.90244H13.317V9.56097Z" fill="white"/>
<path d="M13.317 9.90247H12.9756V10.2439H13.317V9.90247Z" fill="white"/>
<path d="M13.317 10.5854H12.9756V10.9268H13.317V10.5854Z" fill="white"/>
<path d="M13.317 10.9268H12.9756V11.2683H13.317V10.9268Z" fill="white"/>
<path d="M13.317 11.2683H12.9756V11.6098H13.317V11.2683Z" fill="white"/>
<path d="M13.317 11.9512H12.9756V12.2927H13.317V11.9512Z" fill="white"/>
<path d="M13.317 12.2927H12.9756V12.6341H13.317V12.2927Z" fill="white"/>
<path d="M13.317 12.9756H12.9756V13.3171H13.317V12.9756Z" fill="white"/>
<path d="M13.317 13.6585H12.9756V14H13.317V13.6585Z" fill="white"/>
<path d="M13.6585 2.73166H13.3171V3.07312H13.6585V2.73166Z" fill="white"/>
<path d="M13.6585 3.75613H13.3171V4.0976H13.6585V3.75613Z" fill="white"/>
<path d="M13.6585 4.78052H13.3171V5.12198H13.6585V4.78052Z" fill="white"/>
<path d="M13.6585 5.12198H13.3171V5.46344H13.6585V5.12198Z" fill="white"/>
<path d="M13.6585 7.51218H13.3171V7.85364H13.6585V7.51218Z" fill="white"/>
<path d="M13.6585 11.2683H13.3171V11.6098H13.6585V11.2683Z" fill="white"/>
<path d="M13.6585 12.2927H13.3171V12.6341H13.6585V12.2927Z" fill="white"/>
<path d="M13.6585 12.6342H13.3171V12.9756H13.6585V12.6342Z" fill="white"/>
<path d="M13.6585 12.9756H13.3171V13.3171H13.6585V12.9756Z" fill="white"/>
<path d="M13.6585 13.6585H13.3171V14H13.6585V13.6585Z" fill="white"/>
<path d="M14 3.07315H13.6585V3.41461H14V3.07315Z" fill="white"/>
<path d="M14 4.09753H13.6585V4.439H14V4.09753Z" fill="white"/>
<path d="M14 4.78052H13.6585V5.12198H14V4.78052Z" fill="white"/>
<path d="M14 5.46341H13.6585V5.80487H14V5.46341Z" fill="white"/>
<path d="M14 5.80484H13.6585V6.1463H14V5.80484Z" fill="white"/>
<path d="M14 6.14633H13.6585V6.4878H14V6.14633Z" fill="white"/>
<path d="M14 6.82932H13.6585V7.17078H14V6.82932Z" fill="white"/>
<path d="M14 7.85367H13.6585V8.19513H14V7.85367Z" fill="white"/>
<path d="M14 8.19516H13.6585V8.53662H14V8.19516Z" fill="white"/>
<path d="M14 8.53659H13.6585V8.87805H14V8.53659Z" fill="white"/>
<path d="M14 9.21948H13.6585V9.56095H14V9.21948Z" fill="white"/>
<path d="M14 10.2439H13.6585V10.5853H14V10.2439Z" fill="white"/>
<path d="M14 10.5854H13.6585V10.9268H14V10.5854Z" fill="white"/>
<path d="M14 10.9268H13.6585V11.2683H14V10.9268Z" fill="white"/>
<path d="M14 12.2927H13.6585V12.6341H14V12.2927Z" fill="white"/>
<path d="M14 12.6342H13.6585V12.9756H14V12.6342Z" fill="white"/>
</mask>
<g mask="url(#mask0_19_42)">
<path d="M15.5366 -1.53659H-1.53656V15.5366H15.5366V-1.53659Z" fill="#9A9AA3"/>
</g>
<mask id="mask1_19_42" style="mask-type:luminance" maskUnits="userSpaceOnUse" x="0" y="0" width="3" height="3">
<path fill-rule="evenodd" clip-rule="evenodd" d="M0 0V2.39024H2.39024V0H0ZM0.341463 0.341463H2.04878V2.04878H0.341463V0.341463Z" fill="white"/>
</mask>
<g mask="url(#mask1_19_42)">
<path d="M2.39024 0H0V2.39024H2.39024V0Z" fill="#9A9AA3"/>
</g>
<mask id="mask2_19_42" style="mask-type:luminance" maskUnits="userSpaceOnUse" x="0" y="0" width="2" height="2">
<path d="M1.70731 0.682953H0.682922V1.70734H1.70731V0.682953Z" fill="white"/>
</mask>
<g mask="url(#mask2_19_42)">
<path d="M1.70731 0.682953H0.682922V1.70734H1.70731V0.682953Z" fill="#9A9AA3"/>
</g>
<mask id="mask3_19_42" style="mask-type:luminance" maskUnits="userSpaceOnUse" x="11" y="0" width="3" height="3">
<path fill-rule="evenodd" clip-rule="evenodd" d="M14 0L11.6098 0V2.39024H14V0ZM13.6585 0.341463V2.04878H11.9512V0.341463L13.6585 0.341463Z" fill="white"/>
</mask>
<g mask="url(#mask3_19_42)">
<path d="M14 0H11.6097V2.39024H14V0Z" fill="#9A9AA3"/>
</g>
<mask id="mask4_19_42" style="mask-type:luminance" maskUnits="userSpaceOnUse" x="12" y="0" width="2" height="2">
<path d="M13.3171 1.70734V0.682953L12.2927 0.682953V1.70734H13.3171Z" fill="white"/>
</mask>
<g mask="url(#mask4_19_42)">
<path d="M13.3171 0.682953H12.2927V1.70734H13.3171V0.682953Z" fill="#9A9AA3"/>
</g>
<mask id="mask5_19_42" style="mask-type:luminance" maskUnits="userSpaceOnUse" x="0" y="11" width="3" height="3">
<path fill-rule="evenodd" clip-rule="evenodd" d="M0 14H2.39024V11.6098H0L0 14ZM0.341463 13.6585L0.341463 11.9512H2.04878V13.6585H0.341463Z" fill="white"/>
</mask>
<g mask="url(#mask5_19_42)">
<path d="M2.39024 11.6098H0V14H2.39024V11.6098Z" fill="#9A9AA3"/>
</g>
<mask id="mask6_19_42" style="mask-type:luminance" maskUnits="userSpaceOnUse" x="0" y="12" width="2" height="2">
<path d="M0.682922 12.2927L0.682922 13.317H1.70731V12.2927H0.682922Z" fill="white"/>
</mask>
<g mask="url(#mask6_19_42)">
<path d="M1.70731 12.2927H0.682922V13.3171H1.70731V12.2927Z" fill="#9A9AA3"/>
</g>
</svg>
